# xmcd
#
# Track frame offsets:
#	150
#	13657
#	26410
#	44857
#	66663
#	79858
#	93365
#	106118
#	124565
#	146371
#	170823
#
# Disc length: 2319 seconds
#
# Revision: 1
# Processed by: cddbd v1.5.2PL0 Copyright (c) Steve Scherf et al.
# Submitted via: audiograbber 1.83.01
#
DISCID=94090d0b
DTITLE=Johnny Cash - Priddis1540G
DYEAR=1900
DGENRE=Karaoke
TTITLE0=Ring Of Fire
TTITLE1=I Walk The Line
TTITLE2=A Boy Named Sue
TTITLE3=One Piece At A Time
TTITLE4=Folsom Prison Blues
TTITLE5=Ring Of Fire (Vocals)
TTITLE6=I Walk The Line (Vocals)
TTITLE7=A Boy Named Sue (Vocals)
TTITLE8=One Piece At A Time (Vocals)
TTITLE9=Folsom Prison Blues (Vocals)
TTITLE10=Data Track
EXTD=
EXTT0=
EXTT1=
EXTT2=
EXTT3=
EXTT4=
EXTT5=
EXTT6=
EXTT7=
EXTT8=
EXTT9=
EXTT10=
PLAYORDER=
